<?xml version="1.0" encoding="UTF-8" standalone="no"?>
<!DOCTYPE svg PUBLIC "-//W3C//DTD SVG 1.1//EN"
 "http://www.w3.org/Graphics/SVG/1.1/DTD/svg11.dtd">
<!-- Generated by graphviz version 14.1.2 (0)
 -->
<!-- Title: snakemake_dag Pages: 1 -->
<svg width="506pt" height="482pt"
 viewBox="0.00 0.00 506.00 482.00" xmlns="http://www.w3.org/2000/svg" xmlns:xlink="http://www.w3.org/1999/xlink">
<g id="graph0" class="graph" transform="scale(1 1) rotate(0) translate(4 477.75)">
<title>snakemake_dag</title>
<polygon fill="white" stroke="none" points="-4,4 -4,-477.75 501.75,-477.75 501.75,4 -4,4"/>
<!-- 0 -->
<g id="node1" class="node">
<title>0</title>
<path fill="none" stroke="#d85656" stroke-width="2" d="M269,-36C269,-36 239,-36 239,-36 233,-36 227,-30 227,-24 227,-24 227,-12 227,-12 227,-6 233,0 239,0 239,0 269,0 269,0 275,0 281,-6 281,-12 281,-12 281,-24 281,-24 281,-30 275,-36 269,-36"/>
<text xml:space="preserve" text-anchor="middle" x="254" y="-14.12" font-family="sans" font-size="10.00">all</text>
</g>
<!-- 1 -->
<g id="node2" class="node">
<title>1</title>
<path fill="none" stroke="#56d0d8" stroke-width="2" d="M209.12,-108C209.12,-108 124.88,-108 124.88,-108 118.88,-108 112.88,-102 112.88,-96 112.88,-96 112.88,-84 112.88,-84 112.88,-78 118.88,-72 124.88,-72 124.88,-72 209.12,-72 209.12,-72 215.12,-72 221.12,-78 221.12,-84 221.12,-84 221.12,-96 221.12,-96 221.12,-102 215.12,-108 209.12,-108"/>
<text xml:space="preserve" text-anchor="middle" x="167" y="-86.12" font-family="sans" font-size="10.00">summarize_blast_lca</text>
</g>
<!-- 1&#45;&gt;0 -->
<g id="edge1" class="edge">
<title>1&#45;&gt;0</title>
<path fill="none" stroke="grey" stroke-width="2" d="M188.95,-71.34C198.87,-63.36 210.79,-53.77 221.7,-44.99"/>
<polygon fill="grey" stroke="grey" stroke-width="2" points="223.8,-47.8 229.39,-38.8 219.41,-42.34 223.8,-47.8"/>
</g>
<!-- 2 -->
<g id="node3" class="node">
<title>2</title>
<path fill="none" stroke="#8fd856" stroke-width="2" d="M140.38,-252C140.38,-252 93.62,-252 93.62,-252 87.62,-252 81.62,-246 81.62,-240 81.62,-240 81.62,-228 81.62,-228 81.62,-222 87.62,-216 93.62,-216 93.62,-216 140.38,-216 140.38,-216 146.38,-216 152.38,-222 152.38,-228 152.38,-228 152.38,-240 152.38,-240 152.38,-246 146.38,-252 140.38,-252"/>
<text xml:space="preserve" text-anchor="middle" x="117" y="-230.12" font-family="sans" font-size="10.00">get_lineages</text>
</g>
<!-- 2&#45;&gt;1 -->
<g id="edge5" class="edge">
<title>2&#45;&gt;1</title>
<path fill="none" stroke="grey" stroke-width="2" d="M123.33,-215.02C131.67,-191.33 146.45,-149.35 156.48,-120.86"/>
<polygon fill="grey" stroke="grey" stroke-width="2" points="159.69,-122.29 159.71,-111.69 153.09,-119.96 159.69,-122.29"/>
</g>
<!-- 8 -->
<g id="node9" class="node">
<title>8</title>
<path fill="none" stroke="#b6d856" stroke-width="2" d="M100,-180C100,-180 12,-180 12,-180 6,-180 0,-174 0,-168 0,-168 0,-156 0,-156 0,-150 6,-144 12,-144 12,-144 100,-144 100,-144 106,-144 112,-150 112,-156 112,-156 112,-168 112,-168 112,-174 106,-180 100,-180"/>
<text xml:space="preserve" text-anchor="middle" x="56" y="-158.12" font-family="sans" font-size="10.00">extract_fastas_by_lca</text>
</g>
<!-- 2&#45;&gt;8 -->
<g id="edge11" class="edge">
<title>2&#45;&gt;8</title>
<path fill="none" stroke="grey" stroke-width="2" d="M101.61,-215.34C95.08,-207.85 87.33,-198.95 80.08,-190.63"/>
<polygon fill="grey" stroke="grey" stroke-width="2" points="82.8,-188.42 73.59,-183.18 77.52,-193.02 82.8,-188.42"/>
</g>
<!-- 11 -->
<g id="node12" class="node">
<title>11</title>
<path fill="none" stroke="#56d892" stroke-width="2" d="M274.38,-180C274.38,-180 179.62,-180 179.62,-180 173.62,-180 167.62,-174 167.62,-168 167.62,-168 167.62,-156 167.62,-156 167.62,-150 173.62,-144 179.62,-144 179.62,-144 274.38,-144 274.38,-144 280.38,-144 286.38,-150 286.38,-156 286.38,-156 286.38,-168 286.38,-168 286.38,-174 280.38,-180 274.38,-180"/>
<text xml:space="preserve" text-anchor="middle" x="227" y="-158.12" font-family="sans" font-size="10.00">mqc_genus_abundance</text>
</g>
<!-- 2&#45;&gt;11 -->
<g id="edge18" class="edge">
<title>2&#45;&gt;11</title>
<path fill="none" stroke="grey" stroke-width="2" d="M145.04,-215.15C158.1,-206.84 173.85,-196.82 188.04,-187.79"/>
<polygon fill="grey" stroke="grey" stroke-width="2" points="189.9,-190.76 196.46,-182.44 186.14,-184.85 189.9,-190.76"/>
</g>
<!-- 3 -->
<g id="node4" class="node">
<title>3</title>
<path fill="none" stroke="#d87d56" stroke-width="2" d="M242.5,-324C242.5,-324 205.5,-324 205.5,-324 199.5,-324 193.5,-318 193.5,-312 193.5,-312 193.5,-300 193.5,-300 193.5,-294 199.5,-288 205.5,-288 205.5,-288 242.5,-288 242.5,-288 248.5,-288 254.5,-294 254.5,-300 254.5,-300 254.5,-312 254.5,-312 254.5,-318 248.5,-324 242.5,-324"/>
<text xml:space="preserve" text-anchor="middle" x="224" y="-307.75" font-family="sans" font-size="10.00">blast_mito</text>
<text xml:space="preserve" text-anchor="middle" x="224" y="-296.5" font-family="sans" font-size="10.00">pident: 70</text>
</g>
<!-- 3&#45;&gt;2 -->
<g id="edge6" class="edge">
<title>3&#45;&gt;2</title>
<path fill="none" stroke="grey" stroke-width="2" d="M196.72,-287.15C184.02,-278.84 168.7,-268.82 154.89,-259.79"/>
<polygon fill="grey" stroke="grey" stroke-width="2" points="157.05,-257.02 146.76,-254.47 153.21,-262.87 157.05,-257.02"/>
</g>
<!-- 12 -->
<g id="node13" class="node">
<title>12</title>
<path fill="none" stroke="#d8a456" stroke-width="2" d="M265.38,-252C265.38,-252 182.62,-252 182.62,-252 176.62,-252 170.62,-246 170.62,-240 170.62,-240 170.62,-228 170.62,-228 170.62,-222 176.62,-216 182.62,-216 182.62,-216 265.38,-216 265.38,-216 271.38,-216 277.38,-222 277.38,-228 277.38,-228 277.38,-240 277.38,-240 277.38,-246 271.38,-252 265.38,-252"/>
<text xml:space="preserve" text-anchor="middle" x="224" y="-230.12" font-family="sans" font-size="10.00">blast_summary_mqc</text>
</g>
<!-- 3&#45;&gt;12 -->
<g id="edge19" class="edge">
<title>3&#45;&gt;12</title>
<path fill="none" stroke="grey" stroke-width="2" d="M224,-287.34C224,-280.75 224,-273.08 224,-265.67"/>
<polygon fill="grey" stroke="grey" stroke-width="2" points="227.5,-265.93 224,-255.93 220.5,-265.93 227.5,-265.93"/>
</g>
<!-- 4 -->
<g id="node5" class="node">
<title>4</title>
<path fill="none" stroke="#56a9d8" stroke-width="2" d="M239,-396C239,-396 209,-396 209,-396 203,-396 197,-390 197,-384 197,-384 197,-372 197,-372 197,-366 203,-360 209,-360 209,-360 239,-360 239,-360 245,-360 251,-366 251,-372 251,-372 251,-384 251,-384 251,-390 245,-396 239,-396"/>
<text xml:space="preserve" text-anchor="middle" x="224" y="-374.12" font-family="sans" font-size="10.00">vsearch</text>
</g>
<!-- 4&#45;&gt;3 -->
<g id="edge8" class="edge">
<title>4&#45;&gt;3</title>
<path fill="none" stroke="grey" stroke-width="2" d="M224,-359.34C224,-352.75 224,-345.08 224,-337.67"/>
<polygon fill="grey" stroke="grey" stroke-width="2" points="227.5,-337.93 224,-327.93 220.5,-337.93 227.5,-337.93"/>
</g>
<!-- 4&#45;&gt;8 -->
<g id="edge12" class="edge">
<title>4&#45;&gt;8</title>
<path fill="none" stroke="grey" stroke-width="2" d="M196.08,-375.79C161.29,-372.65 102.82,-361.7 73,-324 43.68,-286.93 45.54,-229.08 50.28,-193.75"/>
<polygon fill="grey" stroke="grey" stroke-width="2" points="53.72,-194.39 51.78,-183.97 46.8,-193.32 53.72,-194.39"/>
</g>
<!-- 10 -->
<g id="node11" class="node">
<title>10</title>
<path fill="none" stroke="#567bd8" stroke-width="2" d="M404.12,-252C404.12,-252 307.88,-252 307.88,-252 301.88,-252 295.88,-246 295.88,-240 295.88,-240 295.88,-228 295.88,-228 295.88,-222 301.88,-216 307.88,-216 307.88,-216 404.12,-216 404.12,-216 410.12,-216 416.12,-222 416.12,-228 416.12,-228 416.12,-240 416.12,-240 416.12,-246 410.12,-252 404.12,-252"/>
<text xml:space="preserve" text-anchor="middle" x="356" y="-230.12" font-family="sans" font-size="10.00">vsearch_summary_mqc</text>
</g>
<!-- 4&#45;&gt;10 -->
<g id="edge17" class="edge">
<title>4&#45;&gt;10</title>
<path fill="none" stroke="grey" stroke-width="2" d="M240.72,-359.02C263.43,-334.58 304.23,-290.69 330.71,-262.21"/>
<polygon fill="grey" stroke="grey" stroke-width="2" points="333.11,-264.76 337.36,-255.06 327.98,-260 333.11,-264.76"/>
</g>
<!-- 5 -->
<g id="node6" class="node">
<title>5</title>
<path fill="none" stroke="#d8cb56" stroke-width="2" d="M485.75,-473.75C485.75,-473.75 402.25,-473.75 402.25,-473.75 396.25,-473.75 390.25,-467.75 390.25,-461.75 390.25,-461.75 390.25,-444 390.25,-444 390.25,-438 396.25,-432 402.25,-432 402.25,-432 485.75,-432 485.75,-432 491.75,-432 497.75,-438 497.75,-444 497.75,-444 497.75,-461.75 497.75,-461.75 497.75,-467.75 491.75,-473.75 485.75,-473.75"/>
<text xml:space="preserve" text-anchor="middle" x="444" y="-460.25" font-family="sans" font-size="10.00">clean_reads</text>
<text xml:space="preserve" text-anchor="middle" x="444" y="-449" font-family="sans" font-size="10.00">out_dir: results</text>
<text xml:space="preserve" text-anchor="middle" x="444" y="-437.75" font-family="sans" font-size="10.00">sample: MD8_12S_3</text>
</g>
<!-- 5&#45;&gt;0 -->
<g id="edge3" class="edge">
<title>5&#45;&gt;0</title>
<path fill="none" stroke="grey" stroke-width="2" d="M453.01,-431.21C464.24,-403.5 482,-352.5 482,-307 482,-307 482,-307 482,-161 482,-73.75 360.2,-38.18 294.65,-25.36"/>
<polygon fill="grey" stroke="grey" stroke-width="2" points="295.4,-21.94 284.93,-23.57 294.14,-28.82 295.4,-21.94"/>
</g>
<!-- 5&#45;&gt;4 -->
<g id="edge10" class="edge">
<title>5&#45;&gt;4</title>
<path fill="none" stroke="grey" stroke-width="2" d="M389.35,-437.55C355.26,-428.1 310.36,-414.75 263.64,-397.15"/>
<polygon fill="grey" stroke="grey" stroke-width="2" points="265.15,-393.98 254.56,-393.67 262.64,-400.52 265.15,-393.98"/>
</g>
<!-- 9 -->
<g id="node10" class="node">
<title>9</title>
<path fill="none" stroke="#56d8b9" stroke-width="2" d="M349.75,-108C349.75,-108 278.25,-108 278.25,-108 272.25,-108 266.25,-102 266.25,-96 266.25,-96 266.25,-84 266.25,-84 266.25,-78 272.25,-72 278.25,-72 278.25,-72 349.75,-72 349.75,-72 355.75,-72 361.75,-78 361.75,-84 361.75,-84 361.75,-96 361.75,-96 361.75,-102 355.75,-108 349.75,-108"/>
<text xml:space="preserve" text-anchor="middle" x="314" y="-86.12" font-family="sans" font-size="10.00">multiqc_aggregate</text>
</g>
<!-- 5&#45;&gt;9 -->
<g id="edge16" class="edge">
<title>5&#45;&gt;9</title>
<path fill="none" stroke="grey" stroke-width="2" d="M444,-431.24C444,-403.14 444,-351.27 444,-307 444,-307 444,-307 444,-233 444,-181.13 396.23,-139.97 358.61,-115.59"/>
<polygon fill="grey" stroke="grey" stroke-width="2" points="360.72,-112.79 350.39,-110.47 357.02,-118.73 360.72,-112.79"/>
</g>
<!-- 6 -->
<g id="node7" class="node">
<title>6</title>
<path fill="none" stroke="#68d856" stroke-width="2" d="M326.62,-396C326.62,-396 281.38,-396 281.38,-396 275.38,-396 269.38,-390 269.38,-384 269.38,-384 269.38,-372 269.38,-372 269.38,-366 275.38,-360 281.38,-360 281.38,-360 326.62,-360 326.62,-360 332.62,-360 338.62,-366 338.62,-372 338.62,-372 338.62,-384 338.62,-384 338.62,-390 332.62,-396 326.62,-396"/>
<text xml:space="preserve" text-anchor="middle" x="304" y="-374.12" font-family="sans" font-size="10.00">get_mito_db</text>
</g>
<!-- 6&#45;&gt;3 -->
<g id="edge9" class="edge">
<title>6&#45;&gt;3</title>
<path fill="none" stroke="grey" stroke-width="2" d="M283.81,-359.34C274.79,-351.44 263.96,-341.96 254.01,-333.26"/>
<polygon fill="grey" stroke="grey" stroke-width="2" points="256.57,-330.85 246.74,-326.9 251.96,-336.11 256.57,-330.85"/>
</g>
<!-- 7 -->
<g id="node8" class="node">
<title>7</title>
<path fill="none" stroke="#56d86b" stroke-width="2" d="M142.12,-324C142.12,-324 93.88,-324 93.88,-324 87.88,-324 81.88,-318 81.88,-312 81.88,-312 81.88,-300 81.88,-300 81.88,-294 87.88,-288 93.88,-288 93.88,-288 142.12,-288 142.12,-288 148.12,-288 154.12,-294 154.12,-300 154.12,-300 154.12,-312 154.12,-312 154.12,-318 148.12,-324 142.12,-324"/>
<text xml:space="preserve" text-anchor="middle" x="118" y="-302.12" font-family="sans" font-size="10.00">get_taxdump</text>
</g>
<!-- 7&#45;&gt;2 -->
<g id="edge7" class="edge">
<title>7&#45;&gt;2</title>
<path fill="none" stroke="grey" stroke-width="2" d="M117.75,-287.34C117.65,-280.75 117.54,-273.08 117.44,-265.67"/>
<polygon fill="grey" stroke="grey" stroke-width="2" points="120.94,-265.88 117.3,-255.93 113.94,-265.98 120.94,-265.88"/>
</g>
<!-- 8&#45;&gt;0 -->
<g id="edge2" class="edge">
<title>8&#45;&gt;0</title>
<path fill="none" stroke="grey" stroke-width="2" d="M61.29,-143.12C68.09,-123.13 81.73,-91.06 104,-72 135.17,-45.32 180.66,-31.76 213.37,-25.08"/>
<polygon fill="grey" stroke="grey" stroke-width="2" points="213.93,-28.53 223.11,-23.25 212.64,-21.65 213.93,-28.53"/>
</g>
<!-- 9&#45;&gt;0 -->
<g id="edge4" class="edge">
<title>9&#45;&gt;0</title>
<path fill="none" stroke="grey" stroke-width="2" d="M298.86,-71.34C292.44,-63.85 284.81,-54.95 277.68,-46.63"/>
<polygon fill="grey" stroke="grey" stroke-width="2" points="280.48,-44.51 271.31,-39.2 275.16,-49.07 280.48,-44.51"/>
</g>
<!-- 10&#45;&gt;9 -->
<g id="edge13" class="edge">
<title>10&#45;&gt;9</title>
<path fill="none" stroke="grey" stroke-width="2" d="M350.68,-215.02C343.71,-191.44 331.37,-149.73 322.95,-121.25"/>
<polygon fill="grey" stroke="grey" stroke-width="2" points="326.33,-120.34 320.13,-111.74 319.61,-122.32 326.33,-120.34"/>
</g>
<!-- 11&#45;&gt;9 -->
<g id="edge14" class="edge">
<title>11&#45;&gt;9</title>
<path fill="none" stroke="grey" stroke-width="2" d="M248.95,-143.34C258.87,-135.36 270.79,-125.77 281.7,-116.99"/>
<polygon fill="grey" stroke="grey" stroke-width="2" points="283.8,-119.8 289.39,-110.8 279.41,-114.34 283.8,-119.8"/>
</g>
<!-- 12&#45;&gt;9 -->
<g id="edge15" class="edge">
<title>12&#45;&gt;9</title>
<path fill="none" stroke="grey" stroke-width="2" d="M257.66,-215.09C271.22,-206.25 285.79,-194.38 295,-180 306.14,-162.62 310.86,-139.79 312.81,-121.6"/>
<polygon fill="grey" stroke="grey" stroke-width="2" points="316.28,-122.03 313.58,-111.79 309.31,-121.48 316.28,-122.03"/>
</g>
</g>
</svg>
